# xmcd
# 
# Track frame offsets:
#     150
#     28812
#     48144
#     68723
#     82621
#     99967
#     110963
#     135857
#     159111
#     177157
#     200123
#     226883
#     249513
#     282258
# 
# Disc length: 4036
# 
# Revision: 0
# Processed by: cddbd v1.5.2PL0 Copyright (c) Steve Scherf et al.
# Submitted via: fre:ac v1.0.17
# 
DISCID=ac0fc20e
DTITLE=Various Artist - Lucerne Blues Festival 2010 - Part 2
DYEAR=2010
DGENRE=Blues
TTITLE0=Lucerne Blues Festival 2010 - Bryan Lee - Too many wolves
TTITLE1=Lucerne Blues Festival 2010 - JT Lauritsen and The Bockshot Hunters - What am I living for
TTITLE2=Lucerne Blues Festival 2010 - Mavis Staples - Down in Mississippi
TTITLE3=Lucerne Blues Festival 2010 - The Winklepickers - Checkin' up on my baby
TTITLE4=Lucerne Blues Festival 2010 - Guy Davis - Going back to silver spring
TTITLE5=Lucerne Blues Festival 2010 - Lynwood Slim - Say it
TTITLE6=Lucerne Blues Festival 2010 - Hubert Sumlin - Long distance call
TTITLE7=Lucerne Blues Festival 2010 - Nathan and The Zydeco cha chas - Your love lasts as long as your money
TTITLE8=Lucerne Blues Festival 2010 - Super Chikan - Hey super Chikan
TTITLE9=Lucerne Blues Festival 2010 - Lou Pride - I want to hold your hand
TTITLE10=Lucerne Blues Festival 2010 - Tia Carroll - Juke joint
TTITLE11=Lucerne Blues Festival 2010 - The Billy Gibson Band - Keep Doin' what ya doin'
TTITLE12=Lucerne Blues Festival 2010 - Sharon Lewis - Angel
TTITLE13=Lucerne Blues Festival 2010 - Ronnie Baker Brooks - Born in Chicago
EXTD=
EXTT0=
EXTT1=
EXTT2=
EXTT3=
EXTT4=
EXTT5=
EXTT6=
EXTT7=
EXTT8=
EXTT9=
EXTT10=
EXTT11=
EXTT12=
EXTT13=
PLAYORDER=
